<svg width="141" height="20" viewBox="0 0 141 20" version="1.1" xmlns="http://www.w3.org/2000/svg" xmlns:xlink="http://www.w3.org/1999/xlink">
<title>FreightHub_logo</title>
<desc>Created using Figma</desc>
<g id="Canvas" transform="translate(-41298 -9005)">
<g id="FreightHub_logo">
<g id="Group">
<g id="Vector">
<use xlink:href="#path0_fill" transform="translate(41389.1 9006.44)" fill="#00F7E2"/>
</g>
<g id="Vector">
<use xlink:href="#path1_fill" transform="translate(41389.1 9005)" fill="#00F7E2"/>
</g>
<g id="Vector">
<use xlink:href="#path2_fill" transform="translate(41386.2 9015.4)" fill="#04A7ED"/>
</g>
<g id="Vector">
<use xlink:href="#path3_fill" transform="translate(41389.1 9011.78)" fill="#00F7B9"/>
</g>
<g id="Vector">
<use xlink:href="#path4_fill" transform="translate(41385.8 9011.78)" fill="#00DDFF"/>
</g>
<g id="Vector">
<use xlink:href="#path5_fill" transform="translate(41380 9005)" fill="#00DDFF"/>
</g>
<g id="Vector">
<use xlink:href="#path6_fill" transform="translate(41380 9009.83)" fill="#03C2ED"/>
</g>
<g id="Vector">
<use xlink:href="#path7_fill" transform="translate(41380.5 9018.51)" fill="#04A7ED"/>
</g>
<g id="Vector">
<use xlink:href="#path8_fill" transform="translate(41388.6 9018.51)" fill="#04B4F0"/>
</g>
<g id="Vector">
<use xlink:href="#path9_fill" transform="translate(41394.4 9009.83)" fill="#00F7B9"/>
</g>
<g id="Vector">
<use xlink:href="#path10_fill" transform="translate(41298 9007.87)" fill="#152A47"/>
</g>
<g id="Vector">
<use xlink:href="#path11_fill" transform="translate(41401.3 9007.99)" fill="#152A47"/>
</g>
</g>
</g>
</g>
<defs>
<path id="path0_fill" fill-rule="evenodd" d="M 0 1.43678L 2.42546 0L 3.83562 0.862069L 5.30217 1.66667L 8.17888 3.3908L 6.71232 4.5977L 5.30217 5.05747L 2.42546 3.3908L 5.30217 1.66667L 2.42546 3.3908L 0 1.95402L 0 1.43678Z"/>
<path id="path1_fill" fill-rule="evenodd" d="M 0 2.87356L 2.42546 1.43678L 0 0L 0 2.87356Z"/>
<path id="path2_fill" fill-rule="evenodd" d="M 2.42546 2.87356L 2.42546 2.19235e-07L -3.44276e-06 1.43678L 2.42546 2.87356ZM 2.42546 2.19235e-07L 2.42546 2.87356L 4.85092 1.43678L 2.42546 2.19235e-07Z"/>
<path id="path3_fill" fill-rule="evenodd" d="M 2.42546 4.25287L 2.42546 1.37931L 0 1.09618e-07L 0 2.81609L 2.42546 4.25287Z"/>
<path id="path4_fill" fill-rule="evenodd" d="M 2.42546 1.09618e-07L 3.44276e-06 1.37931L 3.44276e-06 4.25287L 2.42546 2.81609L 2.42546 1.09618e-07Z"/>
<path id="path5_fill" fill-rule="evenodd" d="M 8.17888 3.3908L 2.87671 6.49425L 1.24094 6.09195L -3.44276e-06 4.82759L 8.17888 0L 8.17888 3.3908Z"/>
<path id="path6_fill" fill-rule="evenodd" d="M 2.87671 7.87356L 2.87671 1.66667L -3.44275e-06 -2.19235e-07L -3.44275e-06 9.5977L 2.87671 7.87356Z"/>
<path id="path7_fill" fill-rule="evenodd" d="M 2.87671 0L 8.17888 3.10345L 8.51733 4.65517L 8.17888 6.49425L -1.72138e-06 1.66667L 2.87671 0Z"/>
<path id="path8_fill" fill-rule="evenodd" d="M 5.30218 0L -1.72138e-06 3.10345L -1.72138e-06 6.49425L 8.17888 1.66667L 5.30218 0Z"/>
<path id="path9_fill" fill-rule="evenodd" d="M -3.44276e-06 7.87356L -3.44276e-06 1.66667L 2.87671 -2.19235e-07L 2.87671 9.5977L -3.44276e-06 7.87356Z"/>
<path id="path10_fill" fill-rule="evenodd" d="M 0 12.8161L 2.14343 12.8161L 2.14343 7.70115L 8.34811 7.70115L 8.34811 5.68965L 2.14343 5.68965L 2.14343 2.29885L 9.13779 2.29885L 9.13779 0.287356L 0 0.287356L 0 12.8161ZM 11.5633 12.8161L 13.7067 12.8161L 13.7067 8.44828L 16.4142 8.44828L 19.4601 12.8161L 21.9984 12.8161L 18.6704 8.04598C 20.419 7.52874 21.6035 6.32184 21.6035 4.25287L 21.6035 4.1954C 21.6035 3.10345 21.2087 2.18391 20.5882 1.49425C 19.7985 0.689655 18.5576 0.229885 17.0346 0.229885L 11.5068 0.229885L 11.5068 12.8161L 11.5633 12.8161ZM 13.7067 6.49425L 13.7067 2.29885L 16.8654 2.29885C 18.4448 2.29885 19.4037 3.04598 19.4037 4.36782L 19.4037 4.42529C 19.4037 5.68966 18.3884 6.55172 16.8654 6.55172L 13.7067 6.55172L 13.7067 6.49425ZM 24.311 12.8161L 33.5616 12.8161L 33.5616 10.8621L 26.4545 10.8621L 26.4545 7.47126L 32.6591 7.47126L 32.6591 5.51724L 26.4545 5.51724L 26.4545 2.24138L 33.4488 2.24138L 33.4488 0.287356L 24.311 0.287356L 24.311 12.8161ZM 36.2691 12.8161L 38.4126 12.8161L 38.4126 0.287356L 36.2691 0.287356L 36.2691 12.8161ZM 47.5504 13.046C 49.7502 13.046 51.4988 12.1264 52.6833 11.092L 52.6833 5.8046L 47.4375 5.8046L 47.4375 7.70115L 50.5963 7.70115L 50.5963 10.0575C 49.863 10.6322 48.7913 11.0345 47.6068 11.0345C 45.0685 11.0345 43.4327 9.13793 43.4327 6.55172L 43.4327 6.49425C 43.4327 4.08046 45.1813 2.06897 47.4375 2.06897C 49.0169 2.06897 49.9194 2.58621 50.8783 3.3908L 52.2321 1.72414C 50.9347 0.632184 49.6374 1.02089e-15 47.4939 1.02089e-15C 43.8276 0.0574713 41.1765 3.04598 41.1765 6.55172L 41.1765 6.6092C 41.1765 10.2299 43.7147 13.046 47.5504 13.046ZM 55.56 12.8161L 57.7035 12.8161L 57.7035 7.52874L 63.5697 7.52874L 63.5697 12.8161L 65.7131 12.8161L 65.7131 0.287356L 63.5697 0.287356L 63.5697 5.51724L 57.7035 5.51724L 57.7035 0.287356L 55.56 0.287356L 55.56 12.8161ZM 71.9742 12.8161L 74.174 12.8161L 74.174 2.29885L 78.0661 2.29885L 78.0661 0.287356L 68.0258 0.287356L 68.0258 2.29885L 71.9178 2.29885L 71.9178 12.8161L 71.9742 12.8161Z"/>
<path id="path11_fill" fill-rule="evenodd" d="M 3.44276e-06 12.6437L 1.41016 12.6437L 1.41016 7.01149L 8.51732 7.01149L 8.51732 12.6437L 9.92748 12.6437L 9.92748 0.0574714L 8.51732 0.0574714L 8.51732 5.63218L 1.41016 5.63218L 1.41016 0.0574714L 3.44276e-06 0.0574714L 3.44276e-06 12.6437ZM 18.332 12.8161C 21.4343 12.8161 23.4649 10.9195 23.4649 7.24138L 23.4649 0.0574714L 22.0548 0.0574714L 22.0548 7.35632C 22.0548 10.1149 20.5882 11.4943 18.332 11.4943C 15.9629 11.4943 14.5528 9.94253 14.5528 7.24138L 14.5528 0.0574714L 13.1426 0.0574714L 13.1426 7.35632C 13.199 10.9195 15.2861 12.8161 18.332 12.8161ZM 26.7929 12.6437L 32.2643 12.6437C 34.9718 12.6437 36.7204 11.3793 36.7204 9.1954L 36.7204 9.13793C 36.7204 7.41379 35.5359 6.55172 34.0693 6.09195C 35.0282 5.63218 36.0435 4.82759 36.0435 3.16092L 36.0435 3.10345C 36.0435 2.29885 35.7615 1.6092 35.2538 1.09195C 34.5206 0.402299 33.4488 -1.09618e-07 32.0387 -1.09618e-07L 26.7929 -1.09618e-07L 26.7929 12.6437ZM 28.1467 5.63218L 28.1467 1.32184L 31.9259 1.32184C 33.6745 1.32184 34.6334 2.12644 34.6334 3.39081L 34.6334 3.44828C 34.6334 4.94253 33.4488 5.68966 31.8131 5.68966L 28.1467 5.68966L 28.1467 5.63218ZM 28.1467 11.3793L 28.1467 6.95402L 32.0387 6.95402C 34.1821 6.95402 35.3102 7.75862 35.3102 9.13793L 35.3102 9.08046C 35.3102 10.4598 34.1257 11.3218 32.2643 11.3218L 28.1467 11.3218L 28.1467 11.3793Z"/>
</defs>
</svg>
